<svg xmlns="http://www.w3.org/2000/svg" viewBox="0 0 64 64" role="img" aria-label="ScriptureFlow">
	<defs>
		<linearGradient id="sf-teal-light" x1="11" y1="46" x2="53" y2="14" gradientUnits="userSpaceOnUse">
			<stop offset="0" stop-color="#007f72"/>
			<stop offset="1" stop-color="#0a9a8c"/>
		</linearGradient>
		<linearGradient id="sf-gold-light" x1="32" y1="9" x2="32" y2="23" gradientUnits="userSpaceOnUse">
			<stop offset="0" stop-color="#f7c62f"/>
			<stop offset="1" stop-color="#d99a00"/>
		</linearGradient>
	</defs>
	<rect width="64" height="64" rx="10" fill="#f7f8f7"/>
	<path fill="url(#sf-teal-light)" d="M12 22h3.6c1 0 1.8.8 1.8 1.8v22.7c0 1.1.9 2 2 2h5.8c7.4 0 12.6 1.8 16.6 5.6-5.9-2.3-11.6-3.1-18.3-3.1H12.8A2.8 2.8 0 0 1 10 48.2V24c0-1.1.9-2 2-2Zm36.4 0H52c1.1 0 2 .9 2 2v24.2a2.8 2.8 0 0 1-2.8 2.8H40.5c-6.7 0-12.4.8-18.3 3.1 4-3.8 9.2-5.6 16.6-5.6h5.8c1.1 0 2-.9 2-2V23.8c0-1 .8-1.8 1.8-1.8Z"/>
	<path fill="url(#sf-teal-light)" d="M16.4 17.8c7.2 0 13.4 1 18.2 4.7 3.5 2.7 5.9 6.3 7.4 10.8 1.5-4.5 3.9-8.1 7.4-10.8 4.8-3.7 11-4.7 18.2-4.7 1 0 1.8.8 1.8 1.8v27.5c0 1-.8 1.8-1.8 1.8-12 0-18.8 2.1-23.8 9.4-.4.6-1 .9-1.8.9s-1.4-.3-1.8-.9c-5-7.3-11.8-9.4-23.8-9.4-1 0-1.8-.8-1.8-1.8V19.6c0-1 .8-1.8 1.8-1.8Zm2.2 4v23.1c9.3.2 16.6 1.9 21.4 7.8V36.5c-.9-5.1-3.4-8.7-7.5-11.2-3.5-2.2-8-3.2-13.9-3.5Zm46.8 0c-5.9.3-10.4 1.3-13.9 3.5-4.1 2.5-6.6 6.1-7.5 11.2v16.2c4.8-5.9 12.1-7.6 21.4-7.8V21.8Z"/>
	<path fill="url(#sf-teal-light)" d="M27 27a3.2 3.2 0 1 1 0 6.4 3.2 3.2 0 0 1 0-6.4Zm11 8.5a3.2 3.2 0 1 1 0 6.4 3.2 3.2 0 0 1 0-6.4Zm11.2 8.1a3.2 3.2 0 1 1 0 6.4 3.2 3.2 0 0 1 0-6.4Z"/>
	<path fill="none" stroke="url(#sf-teal-light)" stroke-width="3.2" stroke-linecap="round" stroke-linejoin="round" d="M27 32v6h11m3.2 1.7h7.9v5.7"/>
	<path fill="url(#sf-gold-light)" d="M32 9.7c.6 0 1.1.4 1.2 1l.5 2.6a7.6 7.6 0 0 0 5.9 5.9l2.6.5c.6.1 1 .6 1 1.2s-.4 1.1-1 1.2l-2.6.5a7.6 7.6 0 0 0-5.9 5.9l-.5 2.6c-.1.6-.6 1-1.2 1s-1.1-.4-1.2-1l-.5-2.6a7.6 7.6 0 0 0-5.9-5.9l-2.6-.5c-.6-.1-1-.6-1-1.2s.4-1.1 1-1.2l2.6-.5a7.6 7.6 0 0 0 5.9-5.9l.5-2.6c.1-.6.6-1 1.2-1Z"/>
</svg>
